{
    "asset" : {
        "generator" : "Khronos glTF Blender I/O v1.2.75",
        "version" : "2.0"
    },
    "scene" : 0,
    "scenes" : [
        {
            "name" : "Scene",
            "nodes" : [
                0
            ]
        }
    ],
    "nodes" : [
        {
            "mesh" : 0,
            "name" : "Cylinder.001",
            "rotation" : [
                0.7071068286895752,
                0,
                0,
                0.7071067094802856
            ],
            "scale" : [
                0.009999999776482582,
                0.009999999776482582,
                0.009999999776482582
            ]
        }
    ],
    "materials" : [
        {
            "doubleSided" : true,
            "emissiveFactor" : [
                0,
                0,
                0
            ],
            "name" : "Colour.001",
            "pbrMetallicRoughness" : {
                "baseColorFactor" : [
                    0.10810637474060059,
                    0.8000000715255737,
                    0.8000000715255737,
                    1
                ],
                "metallicFactor" : 0,
                "roughnessFactor" : 0.5
            }
        }
    ],
    "meshes" : [
        {
            "name" : "Cylinder.002",
            "primitives" : [
                {
                    "attributes" : {
                        "POSITION" : 0,
                        "NORMAL" : 1,
                        "TEXCOORD_0" : 2
                    },
                    "indices" : 3,
                    "material" : 0
                }
            ]
        }
    ],
    "accessors" : [
        {
            "bufferView" : 0,
            "componentType" : 5126,
            "count" : 1872,
            "max" : [
                13045.3232421875,
                14588.49609375,
                53.42375183105469
            ],
            "min" : [
                -13043.47265625,
                -14586.3505859375,
                -53.42375564575195
            ],
            "type" : "VEC3"
        },
        {
            "bufferView" : 1,
            "componentType" : 5126,
            "count" : 1872,
            "type" : "VEC3"
        },
        {
            "bufferView" : 2,
            "componentType" : 5126,
            "count" : 1872,
            "type" : "VEC2"
        },
        {
            "bufferView" : 3,
            "componentType" : 5123,
            "count" : 3120,
            "type" : "SCALAR"
        }
    ],
    "bufferViews" : [
        {
            "buffer" : 0,
            "byteLength" : 22464,
            "byteOffset" : 0
        },
        {
            "buffer" : 0,
            "byteLength" : 22464,
            "byteOffset" : 22464
        },
        {
            "buffer" : 0,
            "byteLength" : 14976,
            "byteOffset" : 44928
        },
        {
            "buffer" : 0,
            "byteLength" : 6240,
            "byteOffset" : 59904
        }
    ],
    "buffers" : [
        {
            "byteLength" : 66144,
            "uri" : "data:application/octet-stream;base64,"
        }
    ]
}
