{
    "asset" : {
        "generator" : "Khronos glTF Blender I/O v1.2.75",
        "version" : "2.0"
    },
    "scene" : 0,
    "scenes" : [
        {
            "name" : "Scene",
            "nodes" : [
                0
            ]
        }
    ],
    "nodes" : [
        {
            "mesh" : 0,
            "name" : "hilly surface",
            "rotation" : [
                -0.7071067094802856,
                0,
                0,
                0.7071068286895752
            ],
            "scale" : [
                0.009999999776482582,
                0.009999999776482582,
                0.009999999776482582
            ],
            "translation" : [
                -3.4076180458068848,
                -0.013215785846114159,
                -46.905818939208984
            ]
        }
    ],
    "materials" : [
        {
            "doubleSided" : true,
            "emissiveFactor" : [
                0,
                0,
                0
            ],
            "name" : "diffuse_0.003",
            "pbrMetallicRoughness" : {
                "baseColorFactor" : [
                    0.490200012922287,
                    0.14900000393390656,
                    0.8039000034332275,
                    1
                ],
                "metallicFactor" : 0,
                "roughnessFactor" : 1
            }
        }
    ],
    "meshes" : [
        {
            "name" : "hilly surface.001",
            "primitives" : [
                {
                    "attributes" : {
                        "POSITION" : 0,
                        "NORMAL" : 1,
                        "TEXCOORD_0" : 2
                    },
                    "indices" : 3,
                    "material" : 0
                }
            ]
        }
    ],
    "accessors" : [
        {
            "bufferView" : 0,
            "componentType" : 5126,
            "count" : 5243,
            "max" : [
                5519.9072265625,
                63.7451171875,
                1151.7984619140625
            ],
            "min" : [
                -4380.091796875,
                -9836.2607421875,
                -1538.2916259765625
            ],
            "type" : "VEC3"
        },
        {
            "bufferView" : 1,
            "componentType" : 5126,
            "count" : 5243,
            "type" : "VEC3"
        },
        {
            "bufferView" : 2,
            "componentType" : 5126,
            "count" : 5243,
            "type" : "VEC2"
        },
        {
            "bufferView" : 3,
            "componentType" : 5123,
            "count" : 23430,
            "type" : "SCALAR"
        }
    ],
    "bufferViews" : [
        {
            "buffer" : 0,
            "byteLength" : 62916,
            "byteOffset" : 0
        },
        {
            "buffer" : 0,
            "byteLength" : 62916,
            "byteOffset" : 62916
        },
        {
            "buffer" : 0,
            "byteLength" : 41944,
            "byteOffset" : 125832
        },
        {
            "buffer" : 0,
            "byteLength" : 46860,
            "byteOffset" : 167776
        }
    ],
    "buffers" : [
        {
            "byteLength" : 214636,
            "uri" : "data:application/octet-stream;base64,"
        }
    ]
}
