{
    "asset" : {
        "generator" : "Khronos glTF Blender I/O v1.2.75",
        "version" : "2.0"
    },
    "scene" : 0,
    "scenes" : [
        {
            "name" : "Scene",
            "nodes" : [
                0
            ]
        }
    ],
    "nodes" : [
        {
            "mesh" : 0,
            "name" : "hilly surface",
            "rotation" : [
                -0.7071067094802856,
                0,
                0,
                0.7071068286895752
            ],
            "scale" : [
                0.009999999776482582,
                0.009999999776482582,
                0.009999999776482582
            ]
        }
    ],
    "materials" : [
        {
            "doubleSided" : true,
            "emissiveFactor" : [
                0,
                0,
                0
            ],
            "name" : "diffuse_0.001",
            "pbrMetallicRoughness" : {
                "baseColorFactor" : [
                    0.490200012922287,
                    0.14900000393390656,
                    0.8039000034332275,
                    1
                ],
                "metallicFactor" : 0,
                "roughnessFactor" : 1
            }
        }
    ],
    "meshes" : [
        {
            "name" : "hilly surface.002",
            "primitives" : [
                {
                    "attributes" : {
                        "POSITION" : 0,
                        "NORMAL" : 1,
                        "TEXCOORD_0" : 2
                    },
                    "indices" : 3,
                    "material" : 0
                }
            ]
        }
    ],
    "accessors" : [
        {
            "bufferView" : 0,
            "componentType" : 5126,
            "count" : 5241,
            "max" : [
                5179.1455078125,
                4754.3271484375,
                1150.4759521484375
            ],
            "min" : [
                -4720.853515625,
                -5145.6787109375,
                -1539.6141357421875
            ],
            "type" : "VEC3"
        },
        {
            "bufferView" : 1,
            "componentType" : 5126,
            "count" : 5241,
            "type" : "VEC3"
        },
        {
            "bufferView" : 2,
            "componentType" : 5126,
            "count" : 5241,
            "type" : "VEC2"
        },
        {
            "bufferView" : 3,
            "componentType" : 5123,
            "count" : 23430,
            "type" : "SCALAR"
        }
    ],
    "bufferViews" : [
        {
            "buffer" : 0,
            "byteLength" : 62892,
            "byteOffset" : 0
        },
        {
            "buffer" : 0,
            "byteLength" : 62892,
            "byteOffset" : 62892
        },
        {
            "buffer" : 0,
            "byteLength" : 41928,
            "byteOffset" : 125784
        },
        {
            "buffer" : 0,
            "byteLength" : 46860,
            "byteOffset" : 167712
        }
    ],
    "buffers" : [
        {
            "byteLength" : 214572,
            "uri" : "data:application/octet-stream;base64,"
        }
    ]
}
