{
    "asset" : {
        "generator" : "Khronos glTF Blender I/O v1.2.75",
        "version" : "2.0"
    },
    "scene" : 0,
    "scenes" : [
        {
            "name" : "Scene",
            "nodes" : [
                0
            ]
        }
    ],
    "nodes" : [
        {
            "mesh" : 0,
            "name" : "Cylinder",
            "rotation" : [
                0.7071068286895752,
                0,
                0,
                0.7071067094802856
            ],
            "scale" : [
                0.009999999776482582,
                0.009999999776482582,
                0.009999999776482582
            ]
        }
    ],
    "materials" : [
        {
            "doubleSided" : true,
            "emissiveFactor" : [
                0,
                0,
                0
            ],
            "name" : "Colour",
            "pbrMetallicRoughness" : {
                "baseColorFactor" : [
                    0.01597851701080799,
                    0.32637545466423035,
                    0.02151511237025261,
                    1
                ],
                "metallicFactor" : 0,
                "roughnessFactor" : 0.5
            }
        }
    ],
    "meshes" : [
        {
            "name" : "Cylinder",
            "primitives" : [
                {
                    "attributes" : {
                        "POSITION" : 0,
                        "NORMAL" : 1,
                        "TEXCOORD_0" : 2
                    },
                    "indices" : 3,
                    "material" : 0
                }
            ]
        }
    ],
    "accessors" : [
        {
            "bufferView" : 0,
            "componentType" : 5126,
            "count" : 7056,
            "max" : [
                5129.5576171875,
                3846.108154296875,
                9642.8984375
            ],
            "min" : [
                -5130.4365234375,
                -3847.743896484375,
                -9891.9296875
            ],
            "type" : "VEC3"
        },
        {
            "bufferView" : 1,
            "componentType" : 5126,
            "count" : 7056,
            "type" : "VEC3"
        },
        {
            "bufferView" : 2,
            "componentType" : 5126,
            "count" : 7056,
            "type" : "VEC2"
        },
        {
            "bufferView" : 3,
            "componentType" : 5123,
            "count" : 11760,
            "type" : "SCALAR"
        }
    ],
    "bufferViews" : [
        {
            "buffer" : 0,
            "byteLength" : 84672,
            "byteOffset" : 0
        },
        {
            "buffer" : 0,
            "byteLength" : 84672,
            "byteOffset" : 84672
        },
        {
            "buffer" : 0,
            "byteLength" : 56448,
            "byteOffset" : 169344
        },
        {
            "buffer" : 0,
            "byteLength" : 23520,
            "byteOffset" : 225792
        }
    ],
    "buffers" : [
        {
            "byteLength" : 249312,
            "uri" : "data:application/octet-stream;base64,"
        }
    ]
}
